<mxfile host="Electron" agent="Mozilla/5.0 (X11; Linux x86_64) AppleWebKit/537.36 (KHTML, like Gecko) draw.io/26.2.2 Chrome/134.0.6998.178 Electron/35.1.2 Safari/537.36" version="26.2.2">
  <diagram name="Страница — 1" id="oiOY85YxtNU6KYcy4Fgq">
    <mxGraphModel dx="2684" dy="763" grid="1" gridSize="10" guides="1" tooltips="1" connect="1" arrows="1" fold="1" page="1" pageScale="1" pageWidth="827" pageHeight="1169" math="0" shadow="0">
      <root>
        <mxCell id="0" />
        <mxCell id="1" parent="0" />
        <mxCell id="6mp6UBEjqR5wETGT_Zy_-12" style="edgeStyle=orthogonalEdgeStyle;rounded=0;orthogonalLoop=1;jettySize=auto;html=1;entryX=0.5;entryY=0;entryDx=0;entryDy=0;" edge="1" parent="1" source="6mp6UBEjqR5wETGT_Zy_-1" target="6mp6UBEjqR5wETGT_Zy_-3">
          <mxGeometry relative="1" as="geometry" />
        </mxCell>
        <mxCell id="6mp6UBEjqR5wETGT_Zy_-1" value="Начало" style="rounded=1;whiteSpace=wrap;html=1;" vertex="1" parent="1">
          <mxGeometry x="-1580" y="80" width="120" height="40" as="geometry" />
        </mxCell>
        <mxCell id="6mp6UBEjqR5wETGT_Zy_-13" style="edgeStyle=orthogonalEdgeStyle;rounded=0;orthogonalLoop=1;jettySize=auto;html=1;entryX=0.5;entryY=0;entryDx=0;entryDy=0;" edge="1" parent="1" source="6mp6UBEjqR5wETGT_Zy_-3" target="6mp6UBEjqR5wETGT_Zy_-4">
          <mxGeometry relative="1" as="geometry" />
        </mxCell>
        <mxCell id="6mp6UBEjqR5wETGT_Zy_-3" value="Снять с сигнализации" style="whiteSpace=wrap;html=1;aspect=fixed;" vertex="1" parent="1">
          <mxGeometry x="-1565" y="150" width="90" height="90" as="geometry" />
        </mxCell>
        <mxCell id="6mp6UBEjqR5wETGT_Zy_-14" style="edgeStyle=orthogonalEdgeStyle;rounded=0;orthogonalLoop=1;jettySize=auto;html=1;entryX=0.5;entryY=0;entryDx=0;entryDy=0;" edge="1" parent="1" source="6mp6UBEjqR5wETGT_Zy_-4" target="6mp6UBEjqR5wETGT_Zy_-5">
          <mxGeometry relative="1" as="geometry" />
        </mxCell>
        <mxCell id="6mp6UBEjqR5wETGT_Zy_-4" value="Сесть в амтомобиль" style="whiteSpace=wrap;html=1;aspect=fixed;" vertex="1" parent="1">
          <mxGeometry x="-1560" y="270" width="80" height="80" as="geometry" />
        </mxCell>
        <mxCell id="6mp6UBEjqR5wETGT_Zy_-17" style="edgeStyle=orthogonalEdgeStyle;rounded=0;orthogonalLoop=1;jettySize=auto;html=1;entryX=0.5;entryY=0;entryDx=0;entryDy=0;" edge="1" parent="1" source="6mp6UBEjqR5wETGT_Zy_-5" target="6mp6UBEjqR5wETGT_Zy_-6">
          <mxGeometry relative="1" as="geometry" />
        </mxCell>
        <mxCell id="6mp6UBEjqR5wETGT_Zy_-5" value="Включить зажигание" style="rhombus;whiteSpace=wrap;html=1;" vertex="1" parent="1">
          <mxGeometry x="-1560" y="380" width="80" height="80" as="geometry" />
        </mxCell>
        <mxCell id="6mp6UBEjqR5wETGT_Zy_-18" style="edgeStyle=orthogonalEdgeStyle;rounded=0;orthogonalLoop=1;jettySize=auto;html=1;entryX=0.5;entryY=0;entryDx=0;entryDy=0;" edge="1" parent="1" source="6mp6UBEjqR5wETGT_Zy_-6" target="6mp6UBEjqR5wETGT_Zy_-7">
          <mxGeometry relative="1" as="geometry" />
        </mxCell>
        <mxCell id="6mp6UBEjqR5wETGT_Zy_-6" value="Включить скорость" style="rounded=0;whiteSpace=wrap;html=1;" vertex="1" parent="1">
          <mxGeometry x="-1580" y="480" width="120" height="40" as="geometry" />
        </mxCell>
        <mxCell id="6mp6UBEjqR5wETGT_Zy_-19" style="edgeStyle=orthogonalEdgeStyle;rounded=0;orthogonalLoop=1;jettySize=auto;html=1;entryX=0.5;entryY=0;entryDx=0;entryDy=0;" edge="1" parent="1" source="6mp6UBEjqR5wETGT_Zy_-7" target="6mp6UBEjqR5wETGT_Zy_-8">
          <mxGeometry relative="1" as="geometry" />
        </mxCell>
        <mxCell id="6mp6UBEjqR5wETGT_Zy_-7" value="Начать движение" style="rounded=0;whiteSpace=wrap;html=1;" vertex="1" parent="1">
          <mxGeometry x="-1580" y="540" width="120" height="40" as="geometry" />
        </mxCell>
        <mxCell id="6mp6UBEjqR5wETGT_Zy_-20" style="edgeStyle=orthogonalEdgeStyle;rounded=0;orthogonalLoop=1;jettySize=auto;html=1;entryX=0.5;entryY=0;entryDx=0;entryDy=0;" edge="1" parent="1" source="6mp6UBEjqR5wETGT_Zy_-8" target="6mp6UBEjqR5wETGT_Zy_-9">
          <mxGeometry relative="1" as="geometry" />
        </mxCell>
        <mxCell id="6mp6UBEjqR5wETGT_Zy_-8" value="Остановиться" style="rounded=0;whiteSpace=wrap;html=1;" vertex="1" parent="1">
          <mxGeometry x="-1580" y="600" width="120" height="40" as="geometry" />
        </mxCell>
        <mxCell id="6mp6UBEjqR5wETGT_Zy_-9" value="Конец" style="rounded=1;whiteSpace=wrap;html=1;" vertex="1" parent="1">
          <mxGeometry x="-1580" y="670" width="120" height="40" as="geometry" />
        </mxCell>
        <mxCell id="6mp6UBEjqR5wETGT_Zy_-10" value="1. Алгоритм управления автомобилем" style="text;html=1;align=center;verticalAlign=middle;resizable=0;points=[];autosize=1;strokeColor=none;fillColor=none;" vertex="1" parent="1">
          <mxGeometry x="-1650" y="50" width="240" height="30" as="geometry" />
        </mxCell>
        <mxCell id="6mp6UBEjqR5wETGT_Zy_-11" style="edgeStyle=orthogonalEdgeStyle;rounded=0;orthogonalLoop=1;jettySize=auto;html=1;exitX=0.5;exitY=1;exitDx=0;exitDy=0;" edge="1" parent="1" source="6mp6UBEjqR5wETGT_Zy_-1" target="6mp6UBEjqR5wETGT_Zy_-1">
          <mxGeometry relative="1" as="geometry" />
        </mxCell>
        <mxCell id="6mp6UBEjqR5wETGT_Zy_-21" style="edgeStyle=orthogonalEdgeStyle;rounded=0;orthogonalLoop=1;jettySize=auto;html=1;exitX=1;exitY=0.5;exitDx=0;exitDy=0;entryX=1;entryY=0.5;entryDx=0;entryDy=0;" edge="1" parent="1" source="6mp6UBEjqR5wETGT_Zy_-5" target="6mp6UBEjqR5wETGT_Zy_-9">
          <mxGeometry relative="1" as="geometry" />
        </mxCell>
        <mxCell id="6mp6UBEjqR5wETGT_Zy_-22" value="да" style="text;html=1;align=center;verticalAlign=middle;resizable=0;points=[];autosize=1;strokeColor=none;fillColor=none;" vertex="1" parent="1">
          <mxGeometry x="-1560" y="448" width="40" height="30" as="geometry" />
        </mxCell>
        <mxCell id="6mp6UBEjqR5wETGT_Zy_-23" value="нет" style="text;html=1;align=center;verticalAlign=middle;resizable=0;points=[];autosize=1;strokeColor=none;fillColor=none;" vertex="1" parent="1">
          <mxGeometry x="-1480" y="388" width="40" height="30" as="geometry" />
        </mxCell>
        <mxCell id="6mp6UBEjqR5wETGT_Zy_-32" style="edgeStyle=orthogonalEdgeStyle;rounded=0;orthogonalLoop=1;jettySize=auto;html=1;exitX=0.5;exitY=1;exitDx=0;exitDy=0;entryX=0.5;entryY=0;entryDx=0;entryDy=0;" edge="1" parent="1" source="6mp6UBEjqR5wETGT_Zy_-24" target="6mp6UBEjqR5wETGT_Zy_-26">
          <mxGeometry relative="1" as="geometry" />
        </mxCell>
        <mxCell id="6mp6UBEjqR5wETGT_Zy_-24" value="Начало" style="rounded=1;whiteSpace=wrap;html=1;" vertex="1" parent="1">
          <mxGeometry x="-1340" y="80" width="120" height="40" as="geometry" />
        </mxCell>
        <mxCell id="6mp6UBEjqR5wETGT_Zy_-35" style="edgeStyle=orthogonalEdgeStyle;rounded=0;orthogonalLoop=1;jettySize=auto;html=1;entryX=0.5;entryY=0;entryDx=0;entryDy=0;" edge="1" parent="1" source="6mp6UBEjqR5wETGT_Zy_-25" target="6mp6UBEjqR5wETGT_Zy_-28">
          <mxGeometry relative="1" as="geometry" />
        </mxCell>
        <mxCell id="6mp6UBEjqR5wETGT_Zy_-25" value="Приходим в магазин" style="rounded=0;whiteSpace=wrap;html=1;" vertex="1" parent="1">
          <mxGeometry x="-1340" y="250" width="120" height="40" as="geometry" />
        </mxCell>
        <mxCell id="6mp6UBEjqR5wETGT_Zy_-34" style="edgeStyle=orthogonalEdgeStyle;rounded=0;orthogonalLoop=1;jettySize=auto;html=1;exitX=0.5;exitY=1;exitDx=0;exitDy=0;entryX=0.5;entryY=0;entryDx=0;entryDy=0;" edge="1" parent="1" source="6mp6UBEjqR5wETGT_Zy_-26" target="6mp6UBEjqR5wETGT_Zy_-25">
          <mxGeometry relative="1" as="geometry" />
        </mxCell>
        <mxCell id="6mp6UBEjqR5wETGT_Zy_-26" value="Ввводим параметры шин и максимальную цену" style="shape=parallelogram;perimeter=parallelogramPerimeter;whiteSpace=wrap;html=1;fixedSize=1;" vertex="1" parent="1">
          <mxGeometry x="-1375" y="150" width="190" height="60" as="geometry" />
        </mxCell>
        <mxCell id="6mp6UBEjqR5wETGT_Zy_-36" style="edgeStyle=orthogonalEdgeStyle;rounded=0;orthogonalLoop=1;jettySize=auto;html=1;entryX=0.5;entryY=0;entryDx=0;entryDy=0;" edge="1" parent="1" source="6mp6UBEjqR5wETGT_Zy_-28" target="6mp6UBEjqR5wETGT_Zy_-29">
          <mxGeometry relative="1" as="geometry" />
        </mxCell>
        <mxCell id="6mp6UBEjqR5wETGT_Zy_-28" value="Есть подходящие шины?" style="rhombus;whiteSpace=wrap;html=1;" vertex="1" parent="1">
          <mxGeometry x="-1320" y="320" width="80" height="80" as="geometry" />
        </mxCell>
        <mxCell id="6mp6UBEjqR5wETGT_Zy_-37" value="" style="edgeStyle=orthogonalEdgeStyle;rounded=0;orthogonalLoop=1;jettySize=auto;html=1;" edge="1" parent="1" source="6mp6UBEjqR5wETGT_Zy_-29" target="6mp6UBEjqR5wETGT_Zy_-30">
          <mxGeometry relative="1" as="geometry" />
        </mxCell>
        <mxCell id="6mp6UBEjqR5wETGT_Zy_-49" style="edgeStyle=orthogonalEdgeStyle;rounded=0;orthogonalLoop=1;jettySize=auto;html=1;entryX=1;entryY=0.25;entryDx=0;entryDy=0;" edge="1" parent="1" source="6mp6UBEjqR5wETGT_Zy_-29" target="6mp6UBEjqR5wETGT_Zy_-47">
          <mxGeometry relative="1" as="geometry">
            <Array as="points">
              <mxPoint x="-1190" y="490" />
              <mxPoint x="-1190" y="683" />
            </Array>
          </mxGeometry>
        </mxCell>
        <mxCell id="6mp6UBEjqR5wETGT_Zy_-29" value="Цена ниже&lt;br&gt;максимальной цены?" style="rhombus;whiteSpace=wrap;html=1;" vertex="1" parent="1">
          <mxGeometry x="-1360" y="430" width="160" height="120" as="geometry" />
        </mxCell>
        <mxCell id="6mp6UBEjqR5wETGT_Zy_-48" value="" style="edgeStyle=orthogonalEdgeStyle;rounded=0;orthogonalLoop=1;jettySize=auto;html=1;" edge="1" parent="1" source="6mp6UBEjqR5wETGT_Zy_-30" target="6mp6UBEjqR5wETGT_Zy_-47">
          <mxGeometry relative="1" as="geometry" />
        </mxCell>
        <mxCell id="6mp6UBEjqR5wETGT_Zy_-30" value="Покупаем шины" style="rounded=0;whiteSpace=wrap;html=1;" vertex="1" parent="1">
          <mxGeometry x="-1340" y="590" width="120" height="40" as="geometry" />
        </mxCell>
        <mxCell id="6mp6UBEjqR5wETGT_Zy_-42" value="да" style="text;html=1;align=center;verticalAlign=middle;resizable=0;points=[];autosize=1;strokeColor=none;fillColor=none;" vertex="1" parent="1">
          <mxGeometry x="-1320" y="398" width="40" height="30" as="geometry" />
        </mxCell>
        <mxCell id="6mp6UBEjqR5wETGT_Zy_-43" value="да" style="text;html=1;align=center;verticalAlign=middle;resizable=0;points=[];autosize=1;strokeColor=none;fillColor=none;" vertex="1" parent="1">
          <mxGeometry x="-1320" y="548" width="40" height="30" as="geometry" />
        </mxCell>
        <mxCell id="6mp6UBEjqR5wETGT_Zy_-44" value="нет" style="text;html=1;align=center;verticalAlign=middle;resizable=0;points=[];autosize=1;strokeColor=none;fillColor=none;" vertex="1" parent="1">
          <mxGeometry x="-1230" y="330" width="40" height="30" as="geometry" />
        </mxCell>
        <mxCell id="6mp6UBEjqR5wETGT_Zy_-45" value="нет" style="text;html=1;align=center;verticalAlign=middle;resizable=0;points=[];autosize=1;strokeColor=none;fillColor=none;" vertex="1" parent="1">
          <mxGeometry x="-1220" y="458" width="40" height="30" as="geometry" />
        </mxCell>
        <mxCell id="6mp6UBEjqR5wETGT_Zy_-46" value="2. Алгоритм покупки велосипедных шин" style="text;html=1;align=center;verticalAlign=middle;resizable=0;points=[];autosize=1;strokeColor=none;fillColor=none;" vertex="1" parent="1">
          <mxGeometry x="-1410" y="48" width="250" height="30" as="geometry" />
        </mxCell>
        <mxCell id="6mp6UBEjqR5wETGT_Zy_-52" style="edgeStyle=orthogonalEdgeStyle;rounded=0;orthogonalLoop=1;jettySize=auto;html=1;entryX=0.5;entryY=0;entryDx=0;entryDy=0;" edge="1" parent="1" source="6mp6UBEjqR5wETGT_Zy_-47" target="6mp6UBEjqR5wETGT_Zy_-51">
          <mxGeometry relative="1" as="geometry" />
        </mxCell>
        <mxCell id="6mp6UBEjqR5wETGT_Zy_-47" value="Уходим из магазина" style="rounded=0;whiteSpace=wrap;html=1;" vertex="1" parent="1">
          <mxGeometry x="-1340" y="670" width="120" height="50" as="geometry" />
        </mxCell>
        <mxCell id="6mp6UBEjqR5wETGT_Zy_-50" style="edgeStyle=orthogonalEdgeStyle;rounded=0;orthogonalLoop=1;jettySize=auto;html=1;entryX=1.009;entryY=0.828;entryDx=0;entryDy=0;entryPerimeter=0;" edge="1" parent="1" source="6mp6UBEjqR5wETGT_Zy_-28" target="6mp6UBEjqR5wETGT_Zy_-47">
          <mxGeometry relative="1" as="geometry">
            <Array as="points">
              <mxPoint x="-1180" y="360" />
              <mxPoint x="-1180" y="711" />
            </Array>
          </mxGeometry>
        </mxCell>
        <mxCell id="6mp6UBEjqR5wETGT_Zy_-51" value="Конец" style="rounded=1;whiteSpace=wrap;html=1;" vertex="1" parent="1">
          <mxGeometry x="-1340" y="750" width="120" height="40" as="geometry" />
        </mxCell>
        <mxCell id="6mp6UBEjqR5wETGT_Zy_-64" style="edgeStyle=orthogonalEdgeStyle;rounded=0;orthogonalLoop=1;jettySize=auto;html=1;exitX=0.5;exitY=1;exitDx=0;exitDy=0;entryX=0.5;entryY=0;entryDx=0;entryDy=0;" edge="1" parent="1" source="6mp6UBEjqR5wETGT_Zy_-53" target="6mp6UBEjqR5wETGT_Zy_-54">
          <mxGeometry relative="1" as="geometry" />
        </mxCell>
        <mxCell id="6mp6UBEjqR5wETGT_Zy_-53" value="Начало" style="rounded=1;whiteSpace=wrap;html=1;" vertex="1" parent="1">
          <mxGeometry x="-1110" y="80" width="120" height="40" as="geometry" />
        </mxCell>
        <mxCell id="6mp6UBEjqR5wETGT_Zy_-66" style="edgeStyle=orthogonalEdgeStyle;rounded=0;orthogonalLoop=1;jettySize=auto;html=1;exitX=0.5;exitY=1;exitDx=0;exitDy=0;entryX=0.5;entryY=0;entryDx=0;entryDy=0;" edge="1" parent="1" source="6mp6UBEjqR5wETGT_Zy_-54" target="6mp6UBEjqR5wETGT_Zy_-55">
          <mxGeometry relative="1" as="geometry" />
        </mxCell>
        <mxCell id="6mp6UBEjqR5wETGT_Zy_-54" value="Определение идеи" style="rounded=0;whiteSpace=wrap;html=1;" vertex="1" parent="1">
          <mxGeometry x="-1110" y="150" width="120" height="40" as="geometry" />
        </mxCell>
        <mxCell id="6mp6UBEjqR5wETGT_Zy_-67" style="edgeStyle=orthogonalEdgeStyle;rounded=0;orthogonalLoop=1;jettySize=auto;html=1;exitX=0.5;exitY=1;exitDx=0;exitDy=0;entryX=0.5;entryY=0;entryDx=0;entryDy=0;" edge="1" parent="1" source="6mp6UBEjqR5wETGT_Zy_-55" target="6mp6UBEjqR5wETGT_Zy_-56">
          <mxGeometry relative="1" as="geometry" />
        </mxCell>
        <mxCell id="6mp6UBEjqR5wETGT_Zy_-55" value="Разработка сюжета" style="rounded=0;whiteSpace=wrap;html=1;" vertex="1" parent="1">
          <mxGeometry x="-1110" y="215" width="120" height="40" as="geometry" />
        </mxCell>
        <mxCell id="6mp6UBEjqR5wETGT_Zy_-68" style="edgeStyle=orthogonalEdgeStyle;rounded=0;orthogonalLoop=1;jettySize=auto;html=1;exitX=0.5;exitY=1;exitDx=0;exitDy=0;entryX=0.5;entryY=0;entryDx=0;entryDy=0;" edge="1" parent="1" source="6mp6UBEjqR5wETGT_Zy_-56" target="6mp6UBEjqR5wETGT_Zy_-58">
          <mxGeometry relative="1" as="geometry" />
        </mxCell>
        <mxCell id="6mp6UBEjqR5wETGT_Zy_-56" value="Создание персонажей" style="rounded=0;whiteSpace=wrap;html=1;" vertex="1" parent="1">
          <mxGeometry x="-1110" y="285" width="120" height="40" as="geometry" />
        </mxCell>
        <mxCell id="6mp6UBEjqR5wETGT_Zy_-69" style="edgeStyle=orthogonalEdgeStyle;rounded=0;orthogonalLoop=1;jettySize=auto;html=1;entryX=0.5;entryY=0;entryDx=0;entryDy=0;" edge="1" parent="1" source="6mp6UBEjqR5wETGT_Zy_-58" target="6mp6UBEjqR5wETGT_Zy_-59">
          <mxGeometry relative="1" as="geometry" />
        </mxCell>
        <mxCell id="6mp6UBEjqR5wETGT_Zy_-58" value="Пишем страницу" style="rounded=0;whiteSpace=wrap;html=1;" vertex="1" parent="1">
          <mxGeometry x="-1110" y="350" width="120" height="40" as="geometry" />
        </mxCell>
        <mxCell id="6mp6UBEjqR5wETGT_Zy_-70" style="edgeStyle=orthogonalEdgeStyle;rounded=0;orthogonalLoop=1;jettySize=auto;html=1;exitX=0.5;exitY=1;exitDx=0;exitDy=0;entryX=0.5;entryY=0;entryDx=0;entryDy=0;" edge="1" parent="1" source="6mp6UBEjqR5wETGT_Zy_-59" target="6mp6UBEjqR5wETGT_Zy_-60">
          <mxGeometry relative="1" as="geometry" />
        </mxCell>
        <mxCell id="6mp6UBEjqR5wETGT_Zy_-72" style="edgeStyle=orthogonalEdgeStyle;rounded=0;orthogonalLoop=1;jettySize=auto;html=1;entryX=1;entryY=0.5;entryDx=0;entryDy=0;exitX=1;exitY=0.5;exitDx=0;exitDy=0;" edge="1" parent="1" source="6mp6UBEjqR5wETGT_Zy_-59" target="6mp6UBEjqR5wETGT_Zy_-58">
          <mxGeometry relative="1" as="geometry">
            <Array as="points">
              <mxPoint x="-970" y="463" />
              <mxPoint x="-970" y="370" />
            </Array>
          </mxGeometry>
        </mxCell>
        <mxCell id="6mp6UBEjqR5wETGT_Zy_-59" value="Страница последняя?" style="rhombus;whiteSpace=wrap;html=1;" vertex="1" parent="1">
          <mxGeometry x="-1110" y="423" width="120" height="80" as="geometry" />
        </mxCell>
        <mxCell id="6mp6UBEjqR5wETGT_Zy_-71" style="edgeStyle=orthogonalEdgeStyle;rounded=0;orthogonalLoop=1;jettySize=auto;html=1;exitX=0.5;exitY=1;exitDx=0;exitDy=0;entryX=0.5;entryY=0;entryDx=0;entryDy=0;" edge="1" parent="1" source="6mp6UBEjqR5wETGT_Zy_-60" target="6mp6UBEjqR5wETGT_Zy_-62">
          <mxGeometry relative="1" as="geometry" />
        </mxCell>
        <mxCell id="6mp6UBEjqR5wETGT_Zy_-60" value="Отдаем в печать" style="rounded=0;whiteSpace=wrap;html=1;" vertex="1" parent="1">
          <mxGeometry x="-1110" y="530" width="120" height="40" as="geometry" />
        </mxCell>
        <mxCell id="6mp6UBEjqR5wETGT_Zy_-62" value="Конец" style="rounded=1;whiteSpace=wrap;html=1;" vertex="1" parent="1">
          <mxGeometry x="-1110" y="600" width="120" height="40" as="geometry" />
        </mxCell>
        <mxCell id="6mp6UBEjqR5wETGT_Zy_-73" value="да" style="text;html=1;align=center;verticalAlign=middle;resizable=0;points=[];autosize=1;strokeColor=none;fillColor=none;" vertex="1" parent="1">
          <mxGeometry x="-1090" y="498" width="40" height="30" as="geometry" />
        </mxCell>
        <mxCell id="6mp6UBEjqR5wETGT_Zy_-74" value="нет" style="text;html=1;align=center;verticalAlign=middle;resizable=0;points=[];autosize=1;strokeColor=none;fillColor=none;" vertex="1" parent="1">
          <mxGeometry x="-1000" y="468" width="40" height="30" as="geometry" />
        </mxCell>
        <mxCell id="6mp6UBEjqR5wETGT_Zy_-75" value="3. Алгоритм написания романа" style="text;html=1;align=center;verticalAlign=middle;resizable=0;points=[];autosize=1;strokeColor=none;fillColor=none;" vertex="1" parent="1">
          <mxGeometry x="-1150" y="48" width="200" height="30" as="geometry" />
        </mxCell>
        <mxCell id="6mp6UBEjqR5wETGT_Zy_-86" style="edgeStyle=orthogonalEdgeStyle;rounded=0;orthogonalLoop=1;jettySize=auto;html=1;entryX=0.5;entryY=0;entryDx=0;entryDy=0;" edge="1" parent="1" source="6mp6UBEjqR5wETGT_Zy_-76" target="6mp6UBEjqR5wETGT_Zy_-78">
          <mxGeometry relative="1" as="geometry" />
        </mxCell>
        <mxCell id="6mp6UBEjqR5wETGT_Zy_-76" value="Начало" style="rounded=1;whiteSpace=wrap;html=1;" vertex="1" parent="1">
          <mxGeometry x="-1590" y="840" width="120" height="40" as="geometry" />
        </mxCell>
        <mxCell id="6mp6UBEjqR5wETGT_Zy_-87" style="edgeStyle=orthogonalEdgeStyle;rounded=0;orthogonalLoop=1;jettySize=auto;html=1;exitX=0.5;exitY=1;exitDx=0;exitDy=0;entryX=0.5;entryY=0;entryDx=0;entryDy=0;" edge="1" parent="1" source="6mp6UBEjqR5wETGT_Zy_-78" target="6mp6UBEjqR5wETGT_Zy_-79">
          <mxGeometry relative="1" as="geometry" />
        </mxCell>
        <mxCell id="6mp6UBEjqR5wETGT_Zy_-78" value="Старая&lt;br&gt;дверь&lt;br&gt;установлена?" style="rhombus;whiteSpace=wrap;html=1;" vertex="1" parent="1">
          <mxGeometry x="-1590" y="920" width="120" height="100" as="geometry" />
        </mxCell>
        <mxCell id="6mp6UBEjqR5wETGT_Zy_-88" style="edgeStyle=orthogonalEdgeStyle;rounded=0;orthogonalLoop=1;jettySize=auto;html=1;exitX=0.5;exitY=1;exitDx=0;exitDy=0;entryX=0.5;entryY=0;entryDx=0;entryDy=0;" edge="1" parent="1" source="6mp6UBEjqR5wETGT_Zy_-79" target="6mp6UBEjqR5wETGT_Zy_-81">
          <mxGeometry relative="1" as="geometry" />
        </mxCell>
        <mxCell id="6mp6UBEjqR5wETGT_Zy_-79" value="Демонтируем&lt;br&gt;старую дверь" style="rounded=0;whiteSpace=wrap;html=1;" vertex="1" parent="1">
          <mxGeometry x="-1590" y="1060" width="120" height="50" as="geometry" />
        </mxCell>
        <mxCell id="6mp6UBEjqR5wETGT_Zy_-90" style="edgeStyle=orthogonalEdgeStyle;rounded=0;orthogonalLoop=1;jettySize=auto;html=1;entryX=0.5;entryY=0;entryDx=0;entryDy=0;" edge="1" parent="1" source="6mp6UBEjqR5wETGT_Zy_-81" target="6mp6UBEjqR5wETGT_Zy_-82">
          <mxGeometry relative="1" as="geometry" />
        </mxCell>
        <mxCell id="6mp6UBEjqR5wETGT_Zy_-81" value="Выставляем новую дверь по уровню" style="rounded=0;whiteSpace=wrap;html=1;" vertex="1" parent="1">
          <mxGeometry x="-1590" y="1150" width="120" height="60" as="geometry" />
        </mxCell>
        <mxCell id="6mp6UBEjqR5wETGT_Zy_-91" style="edgeStyle=orthogonalEdgeStyle;rounded=0;orthogonalLoop=1;jettySize=auto;html=1;entryX=0.5;entryY=0;entryDx=0;entryDy=0;" edge="1" parent="1" source="6mp6UBEjqR5wETGT_Zy_-82" target="6mp6UBEjqR5wETGT_Zy_-83">
          <mxGeometry relative="1" as="geometry" />
        </mxCell>
        <mxCell id="6mp6UBEjqR5wETGT_Zy_-94" style="edgeStyle=orthogonalEdgeStyle;rounded=0;orthogonalLoop=1;jettySize=auto;html=1;entryX=1;entryY=0.75;entryDx=0;entryDy=0;" edge="1" parent="1" source="6mp6UBEjqR5wETGT_Zy_-82" target="6mp6UBEjqR5wETGT_Zy_-81">
          <mxGeometry relative="1" as="geometry">
            <Array as="points">
              <mxPoint x="-1450" y="1280" />
              <mxPoint x="-1450" y="1195" />
            </Array>
          </mxGeometry>
        </mxCell>
        <mxCell id="6mp6UBEjqR5wETGT_Zy_-82" value="Новая&lt;br&gt;дверь&lt;br&gt;по уровню?" style="rhombus;whiteSpace=wrap;html=1;" vertex="1" parent="1">
          <mxGeometry x="-1590" y="1240" width="120" height="80" as="geometry" />
        </mxCell>
        <mxCell id="6mp6UBEjqR5wETGT_Zy_-92" style="edgeStyle=orthogonalEdgeStyle;rounded=0;orthogonalLoop=1;jettySize=auto;html=1;entryX=0.5;entryY=0;entryDx=0;entryDy=0;" edge="1" parent="1" source="6mp6UBEjqR5wETGT_Zy_-83" target="6mp6UBEjqR5wETGT_Zy_-84">
          <mxGeometry relative="1" as="geometry" />
        </mxCell>
        <mxCell id="6mp6UBEjqR5wETGT_Zy_-83" value="Закрепляем&lt;br&gt;дверь" style="rounded=0;whiteSpace=wrap;html=1;" vertex="1" parent="1">
          <mxGeometry x="-1590" y="1340" width="120" height="50" as="geometry" />
        </mxCell>
        <mxCell id="6mp6UBEjqR5wETGT_Zy_-93" style="edgeStyle=orthogonalEdgeStyle;rounded=0;orthogonalLoop=1;jettySize=auto;html=1;entryX=0.5;entryY=0;entryDx=0;entryDy=0;" edge="1" parent="1" source="6mp6UBEjqR5wETGT_Zy_-84" target="6mp6UBEjqR5wETGT_Zy_-85">
          <mxGeometry relative="1" as="geometry" />
        </mxCell>
        <mxCell id="6mp6UBEjqR5wETGT_Zy_-84" value="Устанавливаем&lt;br&gt;наличники" style="rounded=0;whiteSpace=wrap;html=1;" vertex="1" parent="1">
          <mxGeometry x="-1590" y="1420" width="120" height="50" as="geometry" />
        </mxCell>
        <mxCell id="6mp6UBEjqR5wETGT_Zy_-85" value="Конец" style="rounded=1;whiteSpace=wrap;html=1;" vertex="1" parent="1">
          <mxGeometry x="-1590" y="1500" width="120" height="40" as="geometry" />
        </mxCell>
        <mxCell id="6mp6UBEjqR5wETGT_Zy_-89" style="edgeStyle=orthogonalEdgeStyle;rounded=0;orthogonalLoop=1;jettySize=auto;html=1;entryX=0.995;entryY=0.38;entryDx=0;entryDy=0;entryPerimeter=0;" edge="1" parent="1" source="6mp6UBEjqR5wETGT_Zy_-78" target="6mp6UBEjqR5wETGT_Zy_-81">
          <mxGeometry relative="1" as="geometry">
            <Array as="points">
              <mxPoint x="-1450" y="970" />
              <mxPoint x="-1450" y="1173" />
            </Array>
          </mxGeometry>
        </mxCell>
        <mxCell id="6mp6UBEjqR5wETGT_Zy_-95" value="да" style="text;html=1;align=center;verticalAlign=middle;resizable=0;points=[];autosize=1;strokeColor=none;fillColor=none;" vertex="1" parent="1">
          <mxGeometry x="-1580" y="1018" width="40" height="30" as="geometry" />
        </mxCell>
        <mxCell id="6mp6UBEjqR5wETGT_Zy_-96" value="нет" style="text;html=1;align=center;verticalAlign=middle;resizable=0;points=[];autosize=1;strokeColor=none;fillColor=none;" vertex="1" parent="1">
          <mxGeometry x="-1490" y="938" width="40" height="30" as="geometry" />
        </mxCell>
        <mxCell id="6mp6UBEjqR5wETGT_Zy_-97" value="да" style="text;html=1;align=center;verticalAlign=middle;resizable=0;points=[];autosize=1;strokeColor=none;fillColor=none;" vertex="1" parent="1">
          <mxGeometry x="-1570" y="1310" width="40" height="30" as="geometry" />
        </mxCell>
        <mxCell id="6mp6UBEjqR5wETGT_Zy_-98" value="нет" style="text;html=1;align=center;verticalAlign=middle;resizable=0;points=[];autosize=1;strokeColor=none;fillColor=none;" vertex="1" parent="1">
          <mxGeometry x="-1490" y="1278" width="40" height="30" as="geometry" />
        </mxCell>
        <mxCell id="6mp6UBEjqR5wETGT_Zy_-99" value="4. Алгоритм установки двери" style="text;html=1;align=center;verticalAlign=middle;resizable=0;points=[];autosize=1;strokeColor=none;fillColor=none;" vertex="1" parent="1">
          <mxGeometry x="-1615" y="810" width="190" height="30" as="geometry" />
        </mxCell>
        <mxCell id="6mp6UBEjqR5wETGT_Zy_-118" style="edgeStyle=orthogonalEdgeStyle;rounded=0;orthogonalLoop=1;jettySize=auto;html=1;exitX=0.5;exitY=1;exitDx=0;exitDy=0;entryX=0.5;entryY=0;entryDx=0;entryDy=0;" edge="1" parent="1" source="6mp6UBEjqR5wETGT_Zy_-100" target="6mp6UBEjqR5wETGT_Zy_-101">
          <mxGeometry relative="1" as="geometry">
            <mxPoint x="-1050.142857142857" y="900" as="targetPoint" />
          </mxGeometry>
        </mxCell>
        <mxCell id="6mp6UBEjqR5wETGT_Zy_-100" value="Начало" style="rounded=1;whiteSpace=wrap;html=1;" vertex="1" parent="1">
          <mxGeometry x="-1110" y="840" width="120" height="40" as="geometry" />
        </mxCell>
        <mxCell id="6mp6UBEjqR5wETGT_Zy_-109" style="edgeStyle=orthogonalEdgeStyle;rounded=0;orthogonalLoop=1;jettySize=auto;html=1;exitX=0.5;exitY=1;exitDx=0;exitDy=0;entryX=0.5;entryY=0;entryDx=0;entryDy=0;" edge="1" parent="1" source="6mp6UBEjqR5wETGT_Zy_-101" target="6mp6UBEjqR5wETGT_Zy_-102">
          <mxGeometry relative="1" as="geometry" />
        </mxCell>
        <mxCell id="6mp6UBEjqR5wETGT_Zy_-101" value="Есть&lt;br&gt;немытая&lt;br&gt;посуда?" style="rhombus;whiteSpace=wrap;html=1;" vertex="1" parent="1">
          <mxGeometry x="-1110" y="913" width="120" height="80" as="geometry" />
        </mxCell>
        <mxCell id="6mp6UBEjqR5wETGT_Zy_-110" style="edgeStyle=orthogonalEdgeStyle;rounded=0;orthogonalLoop=1;jettySize=auto;html=1;entryX=0.5;entryY=0;entryDx=0;entryDy=0;" edge="1" parent="1" source="6mp6UBEjqR5wETGT_Zy_-102" target="6mp6UBEjqR5wETGT_Zy_-103">
          <mxGeometry relative="1" as="geometry" />
        </mxCell>
        <mxCell id="6mp6UBEjqR5wETGT_Zy_-102" value="Берем посуду" style="rounded=0;whiteSpace=wrap;html=1;" vertex="1" parent="1">
          <mxGeometry x="-1110" y="1030" width="120" height="30" as="geometry" />
        </mxCell>
        <mxCell id="6mp6UBEjqR5wETGT_Zy_-111" style="edgeStyle=orthogonalEdgeStyle;rounded=0;orthogonalLoop=1;jettySize=auto;html=1;exitX=0.5;exitY=1;exitDx=0;exitDy=0;entryX=0.5;entryY=0;entryDx=0;entryDy=0;" edge="1" parent="1" source="6mp6UBEjqR5wETGT_Zy_-103" target="6mp6UBEjqR5wETGT_Zy_-104">
          <mxGeometry relative="1" as="geometry" />
        </mxCell>
        <mxCell id="6mp6UBEjqR5wETGT_Zy_-103" value="Моем посуду" style="rounded=0;whiteSpace=wrap;html=1;" vertex="1" parent="1">
          <mxGeometry x="-1110" y="1090" width="120" height="30" as="geometry" />
        </mxCell>
        <mxCell id="6mp6UBEjqR5wETGT_Zy_-112" style="edgeStyle=orthogonalEdgeStyle;rounded=0;orthogonalLoop=1;jettySize=auto;html=1;exitX=0.5;exitY=1;exitDx=0;exitDy=0;entryX=0.5;entryY=0;entryDx=0;entryDy=0;" edge="1" parent="1" source="6mp6UBEjqR5wETGT_Zy_-104" target="6mp6UBEjqR5wETGT_Zy_-105">
          <mxGeometry relative="1" as="geometry" />
        </mxCell>
        <mxCell id="6mp6UBEjqR5wETGT_Zy_-104" value="Ополаскиваем посуду" style="rounded=0;whiteSpace=wrap;html=1;" vertex="1" parent="1">
          <mxGeometry x="-1110" y="1150" width="120" height="30" as="geometry" />
        </mxCell>
        <mxCell id="6mp6UBEjqR5wETGT_Zy_-113" style="edgeStyle=orthogonalEdgeStyle;rounded=0;orthogonalLoop=1;jettySize=auto;html=1;entryX=0;entryY=0.5;entryDx=0;entryDy=0;" edge="1" parent="1" source="6mp6UBEjqR5wETGT_Zy_-105" target="6mp6UBEjqR5wETGT_Zy_-101">
          <mxGeometry relative="1" as="geometry">
            <Array as="points">
              <mxPoint x="-1130" y="1230" />
              <mxPoint x="-1130" y="953" />
            </Array>
          </mxGeometry>
        </mxCell>
        <mxCell id="6mp6UBEjqR5wETGT_Zy_-105" value="Вытираем тарелку" style="rounded=0;whiteSpace=wrap;html=1;" vertex="1" parent="1">
          <mxGeometry x="-1110" y="1210" width="120" height="30" as="geometry" />
        </mxCell>
        <mxCell id="6mp6UBEjqR5wETGT_Zy_-115" style="edgeStyle=orthogonalEdgeStyle;rounded=0;orthogonalLoop=1;jettySize=auto;html=1;exitX=0.5;exitY=1;exitDx=0;exitDy=0;entryX=0.5;entryY=0;entryDx=0;entryDy=0;" edge="1" parent="1" source="6mp6UBEjqR5wETGT_Zy_-106" target="6mp6UBEjqR5wETGT_Zy_-107">
          <mxGeometry relative="1" as="geometry" />
        </mxCell>
        <mxCell id="6mp6UBEjqR5wETGT_Zy_-106" value="Посуда помыта" style="rounded=0;whiteSpace=wrap;html=1;" vertex="1" parent="1">
          <mxGeometry x="-1110" y="1278" width="120" height="30" as="geometry" />
        </mxCell>
        <mxCell id="6mp6UBEjqR5wETGT_Zy_-107" value="Конец" style="rounded=1;whiteSpace=wrap;html=1;" vertex="1" parent="1">
          <mxGeometry x="-1110" y="1340" width="120" height="40" as="geometry" />
        </mxCell>
        <mxCell id="6mp6UBEjqR5wETGT_Zy_-114" style="edgeStyle=orthogonalEdgeStyle;rounded=0;orthogonalLoop=1;jettySize=auto;html=1;exitX=1;exitY=0.5;exitDx=0;exitDy=0;entryX=0.999;entryY=0.4;entryDx=0;entryDy=0;entryPerimeter=0;" edge="1" parent="1" source="6mp6UBEjqR5wETGT_Zy_-101" target="6mp6UBEjqR5wETGT_Zy_-106">
          <mxGeometry relative="1" as="geometry" />
        </mxCell>
        <mxCell id="6mp6UBEjqR5wETGT_Zy_-116" value="да" style="text;html=1;align=center;verticalAlign=middle;resizable=0;points=[];autosize=1;strokeColor=none;fillColor=none;" vertex="1" parent="1">
          <mxGeometry x="-1090" y="988" width="40" height="30" as="geometry" />
        </mxCell>
        <mxCell id="6mp6UBEjqR5wETGT_Zy_-117" value="нет" style="text;html=1;align=center;verticalAlign=middle;resizable=0;points=[];autosize=1;strokeColor=none;fillColor=none;" vertex="1" parent="1">
          <mxGeometry x="-1000" y="918" width="40" height="30" as="geometry" />
        </mxCell>
        <mxCell id="6mp6UBEjqR5wETGT_Zy_-119" value="6. Алгоритм мытья посуды" style="text;html=1;align=center;verticalAlign=middle;resizable=0;points=[];autosize=1;strokeColor=none;fillColor=none;" vertex="1" parent="1">
          <mxGeometry x="-1135" y="810" width="170" height="30" as="geometry" />
        </mxCell>
        <mxCell id="6mp6UBEjqR5wETGT_Zy_-125" style="edgeStyle=orthogonalEdgeStyle;rounded=0;orthogonalLoop=1;jettySize=auto;html=1;entryX=0.5;entryY=0;entryDx=0;entryDy=0;" edge="1" parent="1" source="6mp6UBEjqR5wETGT_Zy_-120" target="6mp6UBEjqR5wETGT_Zy_-121">
          <mxGeometry relative="1" as="geometry" />
        </mxCell>
        <mxCell id="6mp6UBEjqR5wETGT_Zy_-120" value="Начало" style="rounded=1;whiteSpace=wrap;html=1;" vertex="1" parent="1">
          <mxGeometry x="-1360" y="840" width="120" height="40" as="geometry" />
        </mxCell>
        <mxCell id="6mp6UBEjqR5wETGT_Zy_-126" style="edgeStyle=orthogonalEdgeStyle;rounded=0;orthogonalLoop=1;jettySize=auto;html=1;exitX=0.5;exitY=1;exitDx=0;exitDy=0;entryX=0.5;entryY=0;entryDx=0;entryDy=0;" edge="1" parent="1" source="6mp6UBEjqR5wETGT_Zy_-121" target="6mp6UBEjqR5wETGT_Zy_-123">
          <mxGeometry relative="1" as="geometry" />
        </mxCell>
        <mxCell id="6mp6UBEjqR5wETGT_Zy_-121" value="Оттолкнуться ногой" style="rounded=0;whiteSpace=wrap;html=1;" vertex="1" parent="1">
          <mxGeometry x="-1360" y="908" width="120" height="42" as="geometry" />
        </mxCell>
        <mxCell id="6mp6UBEjqR5wETGT_Zy_-130" style="edgeStyle=orthogonalEdgeStyle;rounded=0;orthogonalLoop=1;jettySize=auto;html=1;exitX=1;exitY=0.5;exitDx=0;exitDy=0;entryX=1;entryY=0.5;entryDx=0;entryDy=0;" edge="1" parent="1" source="6mp6UBEjqR5wETGT_Zy_-122" target="6mp6UBEjqR5wETGT_Zy_-121">
          <mxGeometry relative="1" as="geometry" />
        </mxCell>
        <mxCell id="6mp6UBEjqR5wETGT_Zy_-133" style="edgeStyle=orthogonalEdgeStyle;rounded=0;orthogonalLoop=1;jettySize=auto;html=1;exitX=0.5;exitY=1;exitDx=0;exitDy=0;entryX=0.5;entryY=0;entryDx=0;entryDy=0;" edge="1" parent="1" source="6mp6UBEjqR5wETGT_Zy_-122" target="6mp6UBEjqR5wETGT_Zy_-132">
          <mxGeometry relative="1" as="geometry" />
        </mxCell>
        <mxCell id="6mp6UBEjqR5wETGT_Zy_-122" value="Скорость&lt;br&gt;устраивает?" style="rhombus;whiteSpace=wrap;html=1;" vertex="1" parent="1">
          <mxGeometry x="-1360" y="1100" width="120" height="80" as="geometry" />
        </mxCell>
        <mxCell id="6mp6UBEjqR5wETGT_Zy_-127" style="edgeStyle=orthogonalEdgeStyle;rounded=0;orthogonalLoop=1;jettySize=auto;html=1;exitX=0.5;exitY=1;exitDx=0;exitDy=0;entryX=0.5;entryY=0;entryDx=0;entryDy=0;" edge="1" parent="1" source="6mp6UBEjqR5wETGT_Zy_-123" target="6mp6UBEjqR5wETGT_Zy_-124">
          <mxGeometry relative="1" as="geometry" />
        </mxCell>
        <mxCell id="6mp6UBEjqR5wETGT_Zy_-123" value="Поддерживать равновесие" style="rounded=0;whiteSpace=wrap;html=1;" vertex="1" parent="1">
          <mxGeometry x="-1360" y="968" width="120" height="42" as="geometry" />
        </mxCell>
        <mxCell id="6mp6UBEjqR5wETGT_Zy_-129" style="edgeStyle=orthogonalEdgeStyle;rounded=0;orthogonalLoop=1;jettySize=auto;html=1;exitX=0.5;exitY=1;exitDx=0;exitDy=0;entryX=0.5;entryY=0;entryDx=0;entryDy=0;" edge="1" parent="1" source="6mp6UBEjqR5wETGT_Zy_-124" target="6mp6UBEjqR5wETGT_Zy_-122">
          <mxGeometry relative="1" as="geometry" />
        </mxCell>
        <mxCell id="6mp6UBEjqR5wETGT_Zy_-124" value="Управлять направлением" style="rounded=0;whiteSpace=wrap;html=1;" vertex="1" parent="1">
          <mxGeometry x="-1360" y="1030" width="120" height="42" as="geometry" />
        </mxCell>
        <mxCell id="6mp6UBEjqR5wETGT_Zy_-131" value="нет" style="text;html=1;align=center;verticalAlign=middle;resizable=0;points=[];autosize=1;strokeColor=none;fillColor=none;" vertex="1" parent="1">
          <mxGeometry x="-1260" y="1138" width="40" height="30" as="geometry" />
        </mxCell>
        <mxCell id="6mp6UBEjqR5wETGT_Zy_-139" style="edgeStyle=orthogonalEdgeStyle;rounded=0;orthogonalLoop=1;jettySize=auto;html=1;exitX=0.5;exitY=1;exitDx=0;exitDy=0;entryX=0.5;entryY=0;entryDx=0;entryDy=0;" edge="1" parent="1" source="6mp6UBEjqR5wETGT_Zy_-132" target="6mp6UBEjqR5wETGT_Zy_-137">
          <mxGeometry relative="1" as="geometry" />
        </mxCell>
        <mxCell id="6mp6UBEjqR5wETGT_Zy_-132" value="Прибыли&lt;br&gt;в пункт&lt;br&gt;назначения?" style="rhombus;whiteSpace=wrap;html=1;" vertex="1" parent="1">
          <mxGeometry x="-1360" y="1200" width="120" height="80" as="geometry" />
        </mxCell>
        <mxCell id="6mp6UBEjqR5wETGT_Zy_-134" value="да" style="text;html=1;align=center;verticalAlign=middle;resizable=0;points=[];autosize=1;strokeColor=none;fillColor=none;" vertex="1" parent="1">
          <mxGeometry x="-1340" y="1178" width="40" height="30" as="geometry" />
        </mxCell>
        <mxCell id="6mp6UBEjqR5wETGT_Zy_-142" style="edgeStyle=orthogonalEdgeStyle;rounded=0;orthogonalLoop=1;jettySize=auto;html=1;entryX=0;entryY=0.5;entryDx=0;entryDy=0;exitX=0.774;exitY=0.04;exitDx=0;exitDy=0;exitPerimeter=0;" edge="1" parent="1" source="6mp6UBEjqR5wETGT_Zy_-136" target="6mp6UBEjqR5wETGT_Zy_-123">
          <mxGeometry relative="1" as="geometry">
            <Array as="points">
              <mxPoint x="-1380" y="1241" />
              <mxPoint x="-1380" y="989" />
            </Array>
          </mxGeometry>
        </mxCell>
        <mxCell id="6mp6UBEjqR5wETGT_Zy_-136" value="нет" style="text;html=1;align=center;verticalAlign=middle;resizable=0;points=[];autosize=1;strokeColor=none;fillColor=none;" vertex="1" parent="1">
          <mxGeometry x="-1390" y="1240" width="40" height="30" as="geometry" />
        </mxCell>
        <mxCell id="6mp6UBEjqR5wETGT_Zy_-140" style="edgeStyle=orthogonalEdgeStyle;rounded=0;orthogonalLoop=1;jettySize=auto;html=1;exitX=0.5;exitY=1;exitDx=0;exitDy=0;entryX=0.5;entryY=0;entryDx=0;entryDy=0;" edge="1" parent="1" source="6mp6UBEjqR5wETGT_Zy_-137" target="6mp6UBEjqR5wETGT_Zy_-138">
          <mxGeometry relative="1" as="geometry" />
        </mxCell>
        <mxCell id="6mp6UBEjqR5wETGT_Zy_-137" value="Завершение движения" style="rounded=0;whiteSpace=wrap;html=1;" vertex="1" parent="1">
          <mxGeometry x="-1360" y="1308" width="120" height="52" as="geometry" />
        </mxCell>
        <mxCell id="6mp6UBEjqR5wETGT_Zy_-138" value="Конец" style="rounded=1;whiteSpace=wrap;html=1;" vertex="1" parent="1">
          <mxGeometry x="-1360" y="1390" width="120" height="40" as="geometry" />
        </mxCell>
        <mxCell id="6mp6UBEjqR5wETGT_Zy_-141" value="5. Алгоритм управления скейтом" style="text;html=1;align=center;verticalAlign=middle;resizable=0;points=[];autosize=1;strokeColor=none;fillColor=none;" vertex="1" parent="1">
          <mxGeometry x="-1390" y="810" width="210" height="30" as="geometry" />
        </mxCell>
      </root>
    </mxGraphModel>
  </diagram>
</mxfile>
